HIERARCHY
ROOT Hips
{
	OFFSET 0.000000 0.000000 0.000000
	CHANNELS 6 Xposition Yposition Zposition Xrotation Yrotation Zrotation
	JOINT LeftUpLeg_virtual
	{
		OFFSET 0.000000 0.000000 0.000000
		CHANNELS 3 Xrotation Yrotation Zrotation
		JOINT LeftUpLeg
		{
			OFFSET 10.205400 -3.823500 0.155100
			CHANNELS 3 Xrotation Yrotation Zrotation
			JOINT LeftLeg
			{
				OFFSET 0.708757 -12.982077 0.567790
				CHANNELS 3 Xrotation Yrotation Zrotation
				JOINT LeftFoot
				{
					OFFSET -0.708756 -10.717838 -2.184338
					CHANNELS 3 Xrotation Yrotation Zrotation
					JOINT LeftToeBase
					{
						OFFSET 0.108149 -7.191104 7.560241
						CHANNELS 3 Xrotation Yrotation Zrotation
						JOINT LeftToe_End
						{
							OFFSET 0.070230 0.081724 4.490308
							CHANNELS 3 Xrotation Yrotation Zrotation
							End Site
							{
								OFFSET 0 0 0
							}
						}
					}
				}
			}
		}
	}
	JOINT RightUpLeg_virtual
	{
		OFFSET 0.000000 0.000000 0.000000
		CHANNELS 3 Xrotation Yrotation Zrotation
		JOINT RightUpLeg
		{
			OFFSET -10.205400 -3.823500 0.005500
			CHANNELS 3 Xrotation Yrotation Zrotation
			JOINT RightLeg
			{
				OFFSET -0.708756 -12.982134 0.610632
				CHANNELS 3 Xrotation Yrotation Zrotation
				JOINT RightFoot
				{
					OFFSET 0.708754 -10.717769 -1.945823
					CHANNELS 3 Xrotation Yrotation Zrotation
					JOINT RightToeBase
					{
						OFFSET -0.108140 -7.191069 7.372968
						CHANNELS 3 Xrotation Yrotation Zrotation
						JOINT RightToe_End
						{
							OFFSET -0.070227 0.081735 4.479403
							CHANNELS 3 Xrotation Yrotation Zrotation
							End Site
							{
								OFFSET 0 0 0
							}
						}
					}
				}
			}
		}
	}
	JOINT Spine_virtual
	{
		OFFSET 0.000000 0.000000 0.000000
		CHANNELS 3 Xrotation Yrotation Zrotation
		JOINT Spine
		{
			OFFSET 0.000000 6.876099 0.125700
			CHANNELS 3 Xrotation Yrotation Zrotation
			JOINT Spine1
			{
				OFFSET 0.000000 5.730043 0.104720
				CHANNELS 3 Xrotation Yrotation Zrotation
				JOINT Spine1_split
				{
					OFFSET 0.000000 5.730043 0.104720
					CHANNELS 3 Xrotation Yrotation Zrotation
					JOINT Spine2
					{
						OFFSET 0.000000 5.730043 0.104720
						CHANNELS 3 Xrotation Yrotation Zrotation
						JOINT Neck_virtual
						{
							OFFSET 0.000000 0.000000 0.000000
							CHANNELS 3 Xrotation Yrotation Zrotation
							JOINT Neck
							{
								OFFSET 0.000000 10.314075 0.188496
								CHANNELS 3 Xrotation Yrotation Zrotation
								JOINT Head
								{
									OFFSET 0.000000 7.643700 -2.377400
									CHANNELS 3 Xrotation Yrotation Zrotation
									JOINT HeadTop_End
									{
										OFFSET 0.000000 43.788605 -13.619600
										CHANNELS 3 Xrotation Yrotation Zrotation
										End Site
										{
											OFFSET 0 0 0
										}
									}
								}
							}
						}
						JOINT LeftShoulder_virtual
						{
							OFFSET 0.000000 0.000000 0.000000
							CHANNELS 3 Xrotation Yrotation Zrotation
							JOINT LeftShoulder
							{
								OFFSET 2.196100 4.412489 0.087492
								CHANNELS 3 Xrotation Yrotation Zrotation
								JOINT LeftShoulder_split
								{
									OFFSET 2.196100 4.412489 0.087492
									CHANNELS 3 Xrotation Yrotation Zrotation
									JOINT LeftArm
									{
										OFFSET 8.771219 -2.981674 -0.026999
										CHANNELS 3 Xrotation Yrotation Zrotation
										JOINT LeftForeArm
										{
											OFFSET 8.512804 0.000000 -0.000000
											CHANNELS 3 Xrotation Yrotation Zrotation
											JOINT LeftHand
											{
												OFFSET 18.484802 0.000000 -0.000000
												CHANNELS 3 Xrotation Yrotation Zrotation
												End Site
												{
													OFFSET 0 0 0
												}
											}
										}
									}
								}
							}
						}
						JOINT RightShoulder_virtual
						{
							OFFSET 0.000000 0.000000 0.000000
							CHANNELS 3 Xrotation Yrotation Zrotation
							JOINT RightShoulder
							{
								OFFSET -2.196100 4.412496 0.070690
								CHANNELS 3 Xrotation Yrotation Zrotation
								JOINT RightShoulder_split
								{
									OFFSET -2.196100 4.412496 0.070690
									CHANNELS 3 Xrotation Yrotation Zrotation
									JOINT RightArm
									{
										OFFSET -8.771282 -2.981682 -0.094208
										CHANNELS 3 Xrotation Yrotation Zrotation
										JOINT RightForeArm
										{
											OFFSET -8.494598 0.000000 0.000000
											CHANNELS 3 Xrotation Yrotation Zrotation
											JOINT RightHand
											{
												OFFSET -18.483803 0.000000 0.000001
												CHANNELS 3 Xrotation Yrotation Zrotation
												End Site
												{
													OFFSET 0 0 0
												}
											}
										}
									}
								}
							}
						}
					}
				}
			}
		}
	}
}
MOTION
Frames: 9
Frame Time: 0.03333333
4.652702 30.635626 -5.269936 0.000000 0.000000 0.000000 9.547145 17.217438 1.584966 -4.496386 11.297269 4.996609 51.680398 -5.928073 5.742524 -7.447257 -8.323777 -20.735532 -20.987524 0.434392 -1.332838 0.000000 0.000000 0.000000 9.520157 14.724105 1.658744 -31.181709 -7.900289 -9.507279 41.619775 3.276770 1.832114 -20.593000 1.502068 0.668692 -3.746398 1.881640 -0.469265 0.000000 0.000000 0.000000 8.720984 16.108704 1.645078 1.400108 -2.902778 -2.609228 2.192949 -1.707895 1.862346 -1.247907 0.780040 0.084584 0.000000 0.000000 0.000000 2.336265 -2.527942 2.232769 -4.139863 3.411910 1.344456 -11.899162 3.977748 8.530899 0.000000 0.000000 0.000000 0.791515 -1.791340 2.614942 0.934012 1.394107 -0.508312 4.738435 -7.075405 6.927242 -41.747831 -7.879899 -37.483293 174.033753 -63.036437 173.928459 0.000000 0.000000 0.000000 1.154208 -2.975770 1.734409 -0.628141 -19.359867 6.683242 -1.140284 8.349294 -3.814355 -34.477070 8.760457 55.823358 -173.305750 61.352885 175.071696 0.000000 0.000000 0.000000 
4.857098 31.106754 -6.253574 0.000000 0.000000 0.000000 12.489167 17.532626 -1.739867 -18.165902 8.459046 13.160995 63.366397 -5.464211 4.142926 8.391294 -8.585140 -16.323145 -8.839084 1.102270 -5.430832 0.000000 0.000000 0.000000 10.738887 14.266379 -0.972014 -30.418804 -9.358337 -7.059465 38.973958 3.678303 1.738674 -18.764666 2.223176 2.041472 -8.789190 1.524087 -1.083344 0.000000 0.000000 0.000000 10.894077 15.362403 -0.744846 4.939640 -1.979881 -0.856030 2.269925 -1.269560 0.849611 0.423059 0.753434 0.005370 0.000000 0.000000 0.000000 2.489819 -2.126090 1.585632 -4.922759 2.943608 -0.552235 -15.305759 1.539964 9.829948 0.000000 0.000000 0.000000 1.124256 -1.413137 1.853962 1.175481 0.189756 10.962921 4.659539 -4.149097 2.533044 -58.175576 -6.737111 -36.168864 173.376047 -67.464715 172.664491 0.000000 0.000000 0.000000 1.495131 -2.276718 0.922721 -2.448269 -18.295609 -1.007749 -0.272284 6.039720 -4.027334 -52.907062 2.979727 58.855337 -173.421945 64.810839 174.315116 0.000000 0.000000 0.000000 
4.930769 31.165680 -6.923918 0.000000 0.000000 0.000000 13.952006 15.668971 -3.719461 -31.033692 6.078764 20.633581 75.793824 -3.732994 0.968743 18.260924 -4.755337 -5.613411 0.918608 0.800417 -7.931036 0.000000 0.000000 0.000000 11.696649 12.830729 -2.909687 -30.598534 -10.718011 -6.082371 38.973811 2.050758 2.226798 -18.147000 2.202386 0.994359 -13.467271 0.646739 -1.340141 0.000000 0.000000 0.000000 12.650269 13.172511 -2.193514 7.941010 -0.868706 0.152983 2.758100 -0.808482 0.004699 1.925028 0.915340 -0.287359 0.000000 0.000000 0.000000 3.185533 -1.685588 1.075797 -5.950124 2.542208 -2.272679 -19.168354 -0.458448 10.753145 0.000000 0.000000 0.000000 1.989419 -1.095462 1.184533 1.442544 -0.314648 21.296096 4.536742 -0.781951 -0.612090 -71.147171 -6.353713 -32.336561 168.724018 -75.451536 167.783556 0.000000 0.000000 0.000000 2.408391 -1.611515 0.193880 -4.074066 -16.449715 -8.904349 0.621609 2.879899 -3.904334 -66.417770 -3.766772 58.047449 -174.529092 69.070951 173.876358 0.000000 0.000000 0.000000 
4.921868 31.026508 -7.452326 0.000000 0.000000 0.000000 14.050028 12.230330 -3.851782 -41.885455 5.097414 25.471862 85.743422 -2.439675 -2.521635 21.013256 0.015950 6.921292 2.882836 0.339655 -6.444585 0.000000 0.000000 0.000000 12.533751 10.138125 -3.594858 -31.944791 -11.849000 -6.919731 40.111334 -0.852891 3.405705 -17.423182 1.749589 -1.391666 -16.428026 -0.460768 -1.175271 0.000000 0.000000 0.000000 13.843837 10.107550 -2.390021 9.808667 0.097809 0.269018 3.447200 -0.402880 -0.407200 1.836944 0.686319 0.079680 0.000000 0.000000 0.000000 4.127905 -1.245781 0.900442 -7.082602 2.221112 -3.215316 -22.524565 -1.735153 11.384916 0.000000 0.000000 0.000000 3.067390 -0.833001 0.904059 1.392167 0.088849 28.320655 4.184535 1.907424 -3.464777 -78.860333 -6.927521 -27.927255 152.952374 -83.011742 152.464944 0.000000 0.000000 0.000000 3.559733 -1.140438 -0.236800 -5.018910 -14.274114 -15.059406 1.203093 0.242017 -2.895328 -72.507526 -8.501989 55.262306 -176.943550 72.966487 174.435341 0.000000 0.000000 0.000000 
4.754185 30.984051 -7.847858 0.000000 0.000000 0.000000 13.672832 8.943235 -2.986240 -50.028561 5.612071 26.846661 90.515846 -2.552085 -4.927644 20.144258 2.129718 15.655914 -0.986701 -0.184702 -2.064635 0.000000 0.000000 0.000000 13.374019 6.488871 -2.886386 -33.914509 -12.056315 -9.030858 40.066149 -2.994983 4.713888 -15.850772 1.875675 -2.756681 -17.126909 -1.235092 -0.883735 0.000000 0.000000 0.000000 15.201081 7.083267 -1.968817 10.277691 0.747954 -0.392184 4.168876 -0.119047 -0.293051 1.199777 0.097506 0.469965 0.000000 0.000000 0.000000 4.914658 -0.894382 1.108814 -8.340423 1.942809 -3.154878 -24.694107 -2.202460 11.881150 0.000000 0.000000 0.000000 3.868333 -0.513758 1.075524 0.966170 1.370458 30.015765 3.253290 2.280787 -5.006254 -79.648748 -7.171279 -24.506376 134.636402 -85.399044 135.009207 0.000000 0.000000 0.000000 4.622740 -0.836814 -0.218596 -5.117661 -12.280169 -17.713843 1.354396 -0.443155 -1.838790 -70.793654 -10.567535 52.992935 179.354457 75.087712 176.648062 0.000000 0.000000 0.000000 
4.364912 31.202515 -7.764824 0.000000 0.000000 0.000000 13.809779 6.136168 -1.944945 -55.881821 7.078642 25.577872 88.513822 -3.727661 -6.154155 18.703771 1.329244 18.402681 -5.675818 -1.005857 3.200347 0.000000 0.000000 0.000000 14.486138 2.949469 -1.672335 -34.656189 -11.182645 -10.738161 37.649058 -3.594533 5.786790 -14.041931 2.770018 -1.971135 -16.701757 -1.470749 -0.594015 0.000000 0.000000 0.000000 16.721053 4.529536 -1.702960 9.442676 1.138336 -1.377148 4.748959 0.081987 0.253927 0.287971 0.172982 1.002194 0.000000 0.000000 0.000000 5.218793 -0.595471 1.603450 -9.618842 1.704999 -2.158683 -25.200137 -2.091869 12.277133 0.000000 0.000000 0.000000 4.357074 -0.109749 1.533417 0.502687 3.255295 25.978507 2.163047 -0.137819 -5.432790 -72.920425 -6.089544 -23.146261 157.896215 -82.227035 159.250123 0.000000 0.000000 0.000000 5.454156 -0.541076 0.220478 -4.522360 -10.825743 -16.522081 1.333135 0.114195 -0.054280 -62.085156 -10.079617 52.465132 175.965822 75.290056 179.282535 0.000000 0.000000 0.000000 
3.889132 31.462519 -7.344748 0.000000 0.000000 0.000000 15.037165 3.449730 -1.471078 -60.044077 9.136834 23.021398 80.570605 -4.576796 -6.446526 16.395668 -0.408535 16.552135 -6.833553 -1.714073 6.957620 0.000000 0.000000 0.000000 16.225879 0.354125 -1.010100 -31.786946 -10.485956 -10.036884 33.052925 -3.369271 6.213964 -14.449892 3.656065 -0.377356 -16.155098 -1.286628 -0.420496 0.000000 0.000000 0.000000 17.753888 2.178704 -1.962843 7.708639 1.536669 -2.128254 5.214612 0.256077 0.985151 0.179954 0.639573 1.374445 0.000000 0.000000 0.000000 4.858755 -0.322639 2.194612 -10.641678 1.506287 -0.535058 -23.825703 -1.459400 12.612772 0.000000 0.000000 0.000000 4.568075 0.321557 1.970350 0.507439 5.064288 17.098095 0.181039 -3.449575 -5.654195 -59.664496 -3.467026 -24.273500 172.142200 -74.719920 174.260802 0.000000 0.000000 0.000000 5.924741 -0.100571 0.858908 -3.526874 -10.115246 -11.996562 0.671750 1.886403 2.250708 -48.960217 -8.093457 52.884126 175.227438 75.044238 179.866215 0.000000 0.000000 0.000000 
3.469439 31.499260 -6.682320 0.000000 0.000000 0.000000 16.938987 0.753772 -1.907559 -62.050172 11.115551 20.528904 69.770253 -4.744208 -5.834287 10.563408 -1.703831 11.867193 -3.365004 -1.638795 7.898723 0.000000 0.000000 0.000000 17.912099 -0.997018 -1.397119 -24.707467 -10.495180 -6.735794 29.099751 -3.269101 6.080847 -19.719909 3.909123 0.141971 -15.592010 -0.928611 -0.248462 0.000000 0.000000 0.000000 18.092912 0.327875 -2.949974 5.744603 2.025492 -2.436600 5.581866 0.498285 1.569526 0.866639 1.183728 1.472938 0.000000 0.000000 0.000000 4.073534 -0.038766 2.596547 -11.144960 1.296741 1.227382 -20.961519 -0.388292 12.863177 0.000000 0.000000 0.000000 4.559417 0.726535 2.091894 1.094237 6.204768 5.024865 -2.034334 -6.156139 -4.411091 -41.467106 -0.050762 -27.240671 178.015876 -67.289945 -179.341534 0.000000 0.000000 0.000000 6.104028 0.501708 1.454304 -2.288885 -10.131748 -5.312444 -0.289469 2.766906 4.279553 -35.311518 -6.199690 53.186526 177.877346 75.891980 177.444121 0.000000 0.000000 0.000000 
3.166750 31.162565 -5.989159 0.000000 0.000000 0.000000 18.434629 -2.771156 -2.720667 -62.308442 12.698474 19.205121 59.806899 -5.176572 -4.157382 1.216711 -2.376068 5.580452 0.151589 -1.128479 7.161785 0.000000 0.000000 0.000000 18.986464 -1.959843 -2.789672 -15.116593 -10.869194 -1.810819 28.352797 -4.202871 5.991250 -29.174426 3.377152 -1.742735 -15.840950 -0.770008 0.359607 0.000000 0.000000 0.000000 17.301335 -1.205412 -4.205801 3.888215 2.630246 -2.329049 5.750428 0.828402 1.833057 1.735334 1.401562 1.015574 0.000000 0.000000 0.000000 3.274236 0.307825 2.640849 -10.685742 1.158328 2.846397 -17.212770 1.038467 12.862961 0.000000 0.000000 0.000000 4.602476 1.084886 1.870416 1.830319 6.585957 -6.907856 -3.878890 -6.731637 -2.707533 -23.117653 2.920551 -31.250943 -178.464947 -62.986830 -175.305903 0.000000 0.000000 0.000000 5.916332 1.083901 1.734714 -0.971504 -10.855947 1.704631 -0.946414 2.551545 5.568891 -23.875461 -5.869915 53.997379 -175.428409 78.195953 171.049001 0.000000 0.000000 0.000000 
